<?xml version="1.0" encoding="iso-8859-1"?>
<!-- Uploaded to: SVG Repo, www.svgrepo.com, Generator: SVG Repo Mixer Tools -->
<!DOCTYPE svg PUBLIC "-//W3C//DTD SVG 1.1//EN" "http://www.w3.org/Graphics/SVG/1.1/DTD/svg11.dtd">
<svg fill="#000000" version="1.1" id="Capa_1" xmlns="http://www.w3.org/2000/svg" xmlns:xlink="http://www.w3.org/1999/xlink" 
	 width="800px" height="800px" viewBox="0 0 53.252 53.252"
	 xml:space="preserve">
<g>
	<g>
		<path d="M37.711,2.424C24.346-3.698,8.547,2.174,2.425,15.542c-6.123,13.366-0.249,29.166,13.117,35.287
			c13.365,6.121,29.165,0.25,35.287-13.117C56.95,24.344,51.078,8.545,37.711,2.424z M40.825,41.446
			c0,0.837-0.678,1.516-1.515,1.516H13.941c-0.836,0-1.515-0.679-1.515-1.516V25.166c0-0.837,0.678-1.515,1.515-1.515h2.819v-5.942
			c0-5.449,4.417-9.866,9.866-9.866c5.448,0,9.865,4.417,9.865,9.866v5.942h2.819c0.836,0,1.515,0.678,1.515,1.515V41.446z"/>
		<path d="M26.627,13.942c-3.443,0-6.234,3.682-6.234,3.682s2.792,3.682,6.234,3.682c3.441,0,6.233-3.682,6.233-3.682
			S30.068,13.942,26.627,13.942z M26.627,19.838c-1.176,0-2.13-0.953-2.13-2.13c0-1.177,0.954-2.13,2.13-2.13
			c1.175,0,2.129,0.953,2.129,2.13C28.756,18.885,27.801,19.838,26.627,19.838z"/>
		<path d="M28.898,30.358c0-1.255-1.017-2.271-2.271-2.271c-1.255,0-2.272,1.018-2.272,2.271c0,0.997,0.646,1.834,1.538,2.141
			l-1.538,4.485h4.543l-1.538-4.485C28.252,32.191,28.898,31.355,28.898,30.358z"/>
	</g>
</g>
</svg>